<?xml version="1.0" encoding="UTF-8"?>
<svg id="Layer_1" xmlns="http://www.w3.org/2000/svg" version="1.1" viewBox="0 0 200 200">
  <!-- Generator: Adobe Illustrator 29.5.1, SVG Export Plug-In . SVG Version: 2.1.0 Build 141)  -->
  <path d="M114.8,7.3l4.6,42.5,27.4-21.2c-8.7,9.7-15.7,22.7-26.5,30-.2,6.8,2.8,15.9,1.9,22.5-.8,6.6-5.8,12-6.3,17.2,4.1-3.3,8.3-11.8,12.1-14.6,3.9-2.8,19.5-8,20.3-9.3.8-1.8-.6-3.3,0-5.2,2.5-10.7,10.2-22.7,12.6-33.8l-5.2,35.6,40.2-17.5-35,25,33.3,14c-13-2.9-28-2.5-39.9-8.1-2.4,0-14.7,11.3-18.2,12.6s-20,2.4-19.9,3.4c6.1,1.6,15.2,1.3,20.8,3.6s15.1,12,16.9,12.3c12.3-5.5,27.2-5.5,40.4-8l-33.1,13.1,34.4,25.4-39.6-17.5,5.2,35.6c-2.3-10.6-10.7-23.7-12.7-33.6-2.1-10,1.1-4,.4-5.2s-17-6.7-19.7-8.6c-4.4-3.2-8.3-11.3-12.9-14.8,1,5.5,5.8,12.6,6.3,17.8s-2.9,18.9-1.6,22,3.3,1.2,4.4,2.3c7.6,7.3,14.7,20.3,22.3,28l-27.9-22.5-4.6,42.5-.4-185.4h0Z"/>
  <g>
    <path d="M95.9,191.9c-33.4,7.4-67.3-38.7-45.2-66.7-.7,6.5-4.1,20,2,24.4,8.1,5.9,14.4-5.6,14.4-12.6,0-18.1-25.4-27-27.8-41.2s3.8-17.1,6.8-27,0-14.9-3.1-23c5.2,6.5,7.5,15,6.8,23.2s-7.4,20.8,0,24.3,11-1.8,12.9-7.3c6.5-17.7-16.5-35.1-7.8-54-.6,9,.2,13.8,4.7,21.4,6.6,11.3,13.7,15.1,11.9,30.5s-8.6,19.9,3.7,18.7c11.1-1.1,6.3-25.2,2.6-31.6,5.9,5.4,12.9-1.8,10.1-8.6s-15.8-.2-20.2-13.7,12.8-26.8-1.8-41.6c16.2,7.9,4.7,23,6.9,35.3s17.4.1,23.5,12.2c6.3,12.7-5.2,37.1-6.2,51.6-1.1,14.5,4.8,32.5,5.7,50.1.7,11.6-.5,23.6,0,35.3h0Z"/>
    <path d="M31.4,77.5c-23.8,14.3-2.9,21.7,4.2,36.3s3.7,9.7,3.8,14.9c-4.8-14.5-21.3-16.2-30.7-23.7-16.2-13.2,12.6-24.3,22.6-27.6h0Z"/>
    <path d="M31.7,38.1c-4.7,4.6-3.2,14-1.9,19.9-3.8-6.1-6.7-19.2-1.7-25s24.2-4,20.4-18.7c4.1,5.7,2,17-4.7,20s-8.3,0-12.1,3.7h0Z"/>
  </g>
</svg>