<?xml version="1.0" encoding="UTF-8"?>
<svg id="Layer_1" xmlns="http://www.w3.org/2000/svg" version="1.1" viewBox="0 0 630.8 182">
  <!-- Generator: Adobe Illustrator 29.5.1, SVG Export Plug-In . SVG Version: 2.1.0 Build 141)  -->
  <defs>
    <style>
      .st0 {
        fill: #e73e33;
      }

      .st1 {
        fill: #1176bc;
      }
    </style>
  </defs>
  <path class="st1" d="M559.4,22.8l3.8,35,22.6-17.5c-7.2,8-12.9,18.7-21.8,24.7-.2,5.6,2.3,13.1,1.6,18.5s-4.8,9.9-5.2,14.2c3.4-2.7,6.8-9.7,10-12s16.1-6.6,16.7-7.7c.7-1.5-.5-2.7,0-4.3,2.1-8.8,8.4-18.7,10.4-27.8l-4.3,29.3,33.1-14.4-28.8,20.6,27.4,11.5c-10.7-2.4-23.1-2.1-32.9-6.7-2,0-12.1,9.3-15,10.4s-16.5,2-16.4,2.8c5,1.3,12.5,1.1,17.1,3s12.4,9.9,13.9,10.1c10.1-4.5,22.4-4.5,33.3-6.6l-27.3,10.8,28.3,20.9-32.6-14.4,4.3,29.3c-1.9-8.7-8.8-19.5-10.5-27.7s.9-3.3.3-4.3-14-5.5-16.2-7.1c-3.6-2.6-6.8-9.3-10.6-12.2.8,4.5,4.8,10.4,5.2,14.7s-2.4,15.6-1.3,18.1,2.7,1,3.6,1.9c6.3,6,12.1,16.7,18.4,23.1l-23-18.5-3.8,35V22.8Z"/>
  <path d="M159.1,152.4c-4.2,4.8-8.1,7.2-10.1,13.7,4,5,8.6.7,6.7-4.6,7.3,4.6,4.6,15.5-4.6,16.3-4.8.4-8.7-2.5-11-2.4s-8.3,2.7-13.6,2.7c-23.5,0-30.9-18.6-5.9-24.3-7.3-23.4,35.8-15,14.9,2.2l7.7,6.5c3.2-4.8-1.6-6.1-3.4-10.1h19.2ZM130.9,151.4l1.6-.4,1.4-4.8c-4.9-3-5.8,1.7-3.1,5.2ZM133.2,170.6l-9.3-11.1c-1.7-1.2-2.9,1.8-3,3.1-.2,6.2,6.7,10.1,12.3,8Z"/>
  <g>
    <path class="st0" d="M239,97.7l.2,15.4-11.3-9.1h-21.8v7.2h12.2c1.1,0,6.4-4.2,8.4-3.8v15.8c-6.8-3.6-12.7-6.8-20.6-4.1v7h21.8l12-10.1.2,16.8c10.7-6.4,15.2-18.3,21.9-28.1l-7-6.9h36.5c-.7,2.8-7.2,4.8-6.5,7.6,4.4,5,7.9,14.7,12.2,19.3s8.8,5,11.5,8.5h-38.9l10.4-7.2-1.5-2.4c-2.6.9-20.2-2.1-17.9,2.8l8.5,6.8h-90.7l10.6-7.9.4-19.1-11-8.5h60.2ZM275.3,117.4l-4.8-8.6-5.3,8.6h10.1Z"/>
    <path class="st0" d="M177.8,97.7l-10.9,9v17.7c-.1,0,11.4,8.9,11.4,8.9h-72.5l11.1-8.9v-18.1s-11.1-8.5-11.1-8.5h72ZM150.5,110.2c1.2-5.9-5.3-8.6-8.8-12-3.2,3.9-9.8,6-8.5,12h17.3ZM150.5,119.3h-17.3c-1.6,6.7,4.3,9.7,8.8,13.4,4.1-4.1,10.1-6.5,8.5-13.4Z"/>
    <polygon class="st0" points="430.1 97.7 449 115.9 449 106.1 438 97.7 469.7 97.7 458.6 106.1 458.6 133.2 442.1 133.2 423.1 114 423.1 125.1 434.2 133.2 402.5 133.2 413.3 125.1 413.7 106.3 403 97.7 430.1 97.7"/>
    <path class="st0" d="M524.9,98.2v15.4c-7.3-8.1-33-17.4-36.3-1.5-3.1,15.1,10.2,19.8,21.6,13.5l.2-1.6-12.4-9h38.4c-.7,2.5-11,7.8-11,9.4v9.6l.5.7c-.9.8-5.9-3.1-7-3.2s-13.9,3.6-18.2,3.7c-10.9.3-30.3-4-31-17.5-.9-19.3,28.1-23.1,42.1-19.6s6.3,4.5,13.1.1Z"/>
    <path class="st0" d="M359.8,97.7l1,17.3c-1.9-1-11-10.6-11.8-10.6h-7v20.4l11,8.4h-38.4l11-8.2v-20.6h-7c-.8,0-10,9.4-11.5,10.5l1-17.3h51.6Z"/>
    <polygon class="st0" points="400.6 97.7 389.6 106.7 390.2 125.1 401 133.2 362.6 133.2 374.2 124.3 374.1 106.7 363.1 97.7 400.6 97.7"/>
  </g>
  <g>
    <polygon class="st1" points="444.7 141.4 460.8 159.6 460.3 149.5 451 141.4 478.8 141.4 468.7 149.8 468.7 176.9 455 176.9 438 157.2 438 168.5 447.6 176.9 420.2 176.9 429.2 169.2 429.7 149.9 420.2 141.4 444.7 141.4"/>
    <path class="st1" d="M245.9,140.5c36.7-4.4,41.4,38.4,4.7,38.2-31.7-.2-33.9-34.7-4.7-38.2ZM248.3,146.8c-9.5,2-10.2,25.2,2.7,24.9,12.8-.3,11.9-28-2.7-24.9Z"/>
    <path class="st1" d="M299.7,140.5c36.7-4.4,41.4,38.4,4.7,38.2-31.8-.2-33.8-34.7-4.7-38.2ZM310.2,148.7c-13.1-12-22.3,19.4-7.9,22.5s14.7-16.3,7.9-22.5Z"/>
    <path class="st1" d="M526.3,141.4v15.8c-5.8-6.3-14.3-11.4-23.3-10.1-11.3,1.6-12.7,25.7,3.2,24.7s.9-8.7-3-13.2h33.1l-9.6,8.9v10.1c0,.2,1.2.8-.2.7-6-5.4-7.8-1.7-14.1-.6-49.1,9-41.3-48.6,3.4-35.7s4.6,4.5,10.4-.6Z"/>
    <path class="st1" d="M221,140.9v16.3c-7.6-13.4-34.7-16-31,5.3,2.2,12.7,30.2,10.5,30-2.4,5.6,3.4.9,11.6-3.1,14.4-16.6,11.6-55.6-2.7-40.3-23.5s22.3-12.4,34-9,3.9,4.2,10.4-1.1Z"/>
    <polygon class="st1" points="365 141.4 355.4 149.8 355.4 169.7 371.5 169.7 383.8 157.7 383.8 176.9 331.4 176.9 340.4 169.2 340.9 149.9 331.4 141.4 365 141.4"/>
    <path class="st1" d="M418.8,141.4l-9.5,8.5c-.3,1-.4,15.6-.1,17.2.5,3.4,7.5,6.7,9.6,9.8h-33.1l9.5-8.5c.4-1.2.4-15.5.1-17.2-.6-3.9-7.3-6.6-9.6-9.8h33.1Z"/>
  </g>
  <g>
    <path d="M200.7,19.2c22.5,25.1,5.8,57.5-26,59.8l-69.8-.2,17.6-16.4c-1.1-11.1,1.8-26.3.1-36.9-.7-4.6-14.9-13.8-17.8-18.4,22.9,1.3,47.6-1.7,70.3,0s18.3,4.2,25.5,12.2ZM148.6,64.6h18c22,0,19.3-44.6-3.8-44.6h-14.2v44.6Z"/>
    <path d="M413.5,7v31.2l-19.2-19-33.6-.2v15.8l18.3-.2,13.9-8.4v32.6c-2.3-.6-12.6-9.6-13.7-9.6h-18.5v15.4h34.3l19.9-20.6v34.8l-97.9.7,17.7-17.1-.6-39-17.1-16.3h96.5Z"/>
    <path d="M310.3,38.2l-19.4-19-33.8-.2v15.1l18.4.6,14.2-8.5v32.6c-2.3-.5-12.8-9.6-13.7-9.6h-19v15.4h34.3l19.7-20.2v34.9s-97.7.2-97.7.2c3.3-5.2,17.5-13.8,18.3-19.4s.2-34.4-.7-36.3l-17.5-16.8h96.2l.7.7v30.5Z"/>
    <path d="M528.2,34.3c-12.7-10.8-27.5-19.7-44.9-18.3-7,.6-15,6.2-5.5,9.8,17.9,7,57.3-1.5,59,29.3,1.9,33.7-45.1,31.3-65.5,20l-12.8,6.6v-36c8.1,12.7,21.3,21.1,36.3,23s22,1.7,21.8-5.5c0-.8-.3-1.5-.7-2.1-1.8-2.6-28.8-4.8-34.3-6-16.6-3.7-28.9-12.6-25.2-31.5C461.3-1.5,496.6,0,514.1,9.8l12.6-5.6,1.6.6v29.5Z"/>
    <path d="M426,39.6c0-.1-.1-2.4,0-2.8.5-1,11.9-7.7,11-12.8-14.5,4.1-15.4-19-2.1-19.9s14,26.9-2.2,33.8-6.3,2.1-6.7,1.7Z"/>
  </g>
  <g>
    <path class="st0" d="M81.4,176.4c-27.9,6.2-56.2-32.3-37.7-55.7-.6,5.4-3.4,16.7,1.7,20.4,6.8,4.9,12-4.7,12-10.5,0-15.1-21.2-22.5-23.2-34.4s3.2-14.3,5.7-22.5,0-12.4-2.6-19.2c4.3,5.4,6.3,12.5,5.7,19.4s-6.2,17.4,0,20.3,9.2-1.5,10.8-6.1c5.4-14.8-13.8-29.3-6.5-45.1-.5,7.5.2,11.5,3.9,17.9,5.5,9.4,11.4,12.6,9.9,25.5s-7.2,16.6,3.1,15.6c9.3-.9,5.3-21,2.2-26.4,4.9,4.5,10.8-1.5,8.4-7.2s-13.2-.2-16.9-11.4,10.7-22.4-1.5-34.7c13.5,6.6,3.9,19.2,5.8,29.5s14.5.1,19.6,10.2c5.3,10.6-4.3,31-5.2,43.1s4,27.1,4.8,41.8c.6,9.7-.4,19.7,0,29.5Z"/>
    <path class="st0" d="M27.6,80.9c-19.9,11.9-2.4,18.1,3.5,30.3s3.1,8.1,3.2,12.4c-4-12.1-17.8-13.5-25.6-19.8-13.5-11,10.5-20.3,18.9-23Z"/>
    <path class="st0" d="M27.8,48c-3.9,3.8-2.7,11.7-1.6,16.6-3.2-5.1-5.6-16-1.4-20.9s20.2-3.3,17-15.6c3.4,4.8,1.7,14.2-3.9,16.7s-6.9,0-10.1,3.1Z"/>
  </g>
</svg>